<svg width="752" height="754" version="1.1" xmlns="http://www.w3.org/2000/svg"><g transform="translate(100,100) scale(0.8)"><path class="link" d="M468.6059686923513,392.39744771413336L468.6059686923513,326.9991492380445L560.8883974222089,326.9991492380445" id="node_2953:node_6466" style="fill: none; stroke-width: 3; stroke: grey; cursor: pointer;"></path><path class="link" d="M468.6059686923513,392.39744771413336L468.6059686923513,457.7957461902223L571.9964675470991,457.7957461902223" id="node_2953:node_7053" style="fill: none; stroke-width: 3; stroke: grey; cursor: pointer;"></path><path class="link" d="M436.21548870407065,294.30382842880005L436.21548870407065,196.20638071466672L489.5072421372486,196.20638071466672" id="node_6942:node_4824" style="fill: none; stroke-width: 3; stroke: grey; cursor: pointer;"></path><path class="link" d="M436.21548870407065,294.30382842880005L436.21548870407065,392.4012761429334L468.59528825840664,392.4012761429334" id="node_6942:node_2953" style="fill: none; stroke-width: 3; stroke: grey; cursor: pointer;"></path><path class="link" d="M25.711436865834337,441.44510811875557L25.711436865834337,294.29893654755557L436.2153401046939,294.29893654755557" id="node_4480:node_6942" style="fill: none; stroke-width: 3; stroke: grey; cursor: pointer;"></path><path class="link" d="M25.711436865834337,441.44510811875557L25.711436865834337,588.5912796899555L513.4771395968456,588.5912796899555" id="node_4480:node_2326" style="fill: none; stroke-width: 3; stroke: grey; cursor: pointer;"></path><path class="link" d="M20,253.42500000000004L20,65.40489188124448L571.9856385137775,65.40489188124448" id="node_6633:node_6164" style="fill: none; stroke-width: 3; stroke: grey; cursor: pointer;"></path><path class="link" d="M20,253.42500000000004L20,441.44510811875557L25.711436865834337,441.44510811875557" id="node_6633:node_4480" style="fill: none; stroke-width: 3; stroke: grey; cursor: pointer;"></path><g class="node" transform="translate(513.4798294127656,588.5969103323004)" id="node_2326" style="cursor: crosshair;"><circle class="node" r="4" style="fill: black;"></circle><rect class="node" y="-4px" x="-4px" width="0px" height="0px" style="stroke-width: 2px; stroke: black;"></rect><text x="13" dy=".3em" dx="-.3em" text-anchor="start" font-size="14px" style="fill-opacity: 0.999979; font-family: sans-serif; font-weight: normal; fill: black;">5_sp_P79085_ALTA1_ALTAL_Major_allergen_Alt_a_1_OS=Alternaria_alternata_OX=5599_GN=ALTA1_PE=1_SV=1</text><text class="triangleText" dy=".35em" font-size="14px" style="fill-opacity: 1e-06; font-family: sans-serif;"></text><path d="M0,0L0,0L0,0L0,0"></path></g><g class="node" transform="translate(571.9978462356378,457.798625457807)" id="node_7053" style="cursor: crosshair;"><circle class="node" r="4" style="fill: black;"></circle><rect class="node" y="-4px" x="-4px" width="0px" height="0px" style="stroke-width: 2px; stroke: black;"></rect><text x="13" dy=".3em" dx="-.3em" text-anchor="start" font-size="14px" style="fill-opacity: 0.999979; font-family: sans-serif; font-weight: normal; fill: black;">3_sp_Q5ULZ4_FRA1A_FRAAN_Major_strawberry_allergen_Fra_a_1-A_OS=Fragaria_ananassa_OX=3747_GN=FRAA1A_1_PE=1_SV=3</text><text class="triangleText" dy=".35em" font-size="14px" style="fill-opacity: 1e-06; font-family: sans-serif;"></text><path d="M0,0L0,0L0,0L0,0"></path></g><g class="node" transform="translate(560.8897402290133,327.0013623351618)" id="node_6466" style="cursor: crosshair;"><circle class="node" r="4" style="fill: black;"></circle><rect class="node" y="-4px" x="-4px" width="0px" height="0px" style="stroke-width: 2px; stroke: black;"></rect><text x="13" dy=".3em" dx="-.3em" text-anchor="start" font-size="14px" style="fill-opacity: 0.999979; font-family: sans-serif; font-weight: normal; fill: black;">2_tr_Q9SWR4_Q9SWR4_CORAV_Major_allergen_Cor_a_1_0401_OS=Corylus_avellana_OX=13451_GN=CORA1_0401_PE=1_SV=1</text><text class="triangleText" dy=".35em" font-size="14px" style="fill-opacity: 1e-06; font-family: sans-serif;"></text><path d="M0,0L0,0L0,0L0,0"></path></g><g class="node" transform="translate(468.60613700820227,392.39795039342386)" id="node_2953" style="cursor: crosshair;"><circle class="node" r="4" style="fill: black;"></circle><rect class="node" y="-4px" x="-4px" width="0px" height="0px" style="stroke-width: 2px; stroke: black;"></rect><text x="-13" dy="-.3em" dx=".3em" text-anchor="end" font-size="14px" style="fill-opacity: 0.999979; font-family: sans-serif; font-weight: normal;"></text><text class="triangleText" dy=".35em" font-size="14px" style="fill-opacity: 1e-06; font-family: sans-serif;" x="0"></text><path d="M0,0L0,0L0,0L0,0"></path></g><g class="node" transform="translate(489.51820748717597,196.2020404509848)" id="node_4824" style="cursor: crosshair;"><circle class="node" r="4" style="fill: black;"></circle><rect class="node" y="-4px" x="-4px" width="0px" height="0px" style="stroke-width: 2px; stroke: black;"></rect><text x="13" dy=".3em" dx="-.3em" text-anchor="start" font-size="14px" style="fill-opacity: 0.999979; font-family: sans-serif; font-weight: normal; fill: black;">1_tr_O23748_O23748_BETPN_Pollen_allergen__Betv1__Fragment__OS=Betula_pendula_OX=3505_GN=Betv1_PE=3_SV=1</text><text class="triangleText" dy=".35em" font-size="14px" style="fill-opacity: 1e-06; font-family: sans-serif;"></text><path d="M0,0L0,0L0,0L0,0"></path></g><g class="node" transform="translate(436.2176144182943,294.3030530478773)" id="node_6942" style="cursor: crosshair;"><circle class="node" r="4" style="fill: black;"></circle><rect class="node" y="-4px" x="-4px" width="0px" height="0px" style="stroke-width: 2px; stroke: black;"></rect><text x="-13" dy="-.3em" dx=".3em" text-anchor="end" font-size="14px" style="fill-opacity: 0.999979; font-family: sans-serif; font-weight: normal;"></text><text class="triangleText" dy=".35em" font-size="14px" style="fill-opacity: 1e-06; font-family: sans-serif;" x="0"></text><path d="M0,0L0,0L0,0L0,0"></path></g><g class="node" transform="translate(25.71146702154492,441.446095492885)" id="node_4480" style="cursor: crosshair;"><circle class="node" r="4" style="fill: black;"></circle><rect class="node" y="-4px" x="-4px" width="0px" height="0px" style="stroke-width: 2px; stroke: black;"></rect><text x="-13" dy="-.3em" dx=".3em" text-anchor="end" font-size="14px" style="fill-opacity: 0.999979; font-family: sans-serif; font-weight: normal;"></text><text class="triangleText" dy=".35em" font-size="14px" style="fill-opacity: 1e-06; font-family: sans-serif;" x="0"></text><path d="M0,0L0,0L0,0L0,0"></path></g><g class="node" transform="translate(571.9885013902223,65.40391823986626)" id="node_6164" style="cursor: crosshair;"><circle class="node" r="4" style="fill: black;"></circle><rect class="node" y="-4px" x="-4px" width="0px" height="0px" style="stroke-width: 2px; stroke: black;"></rect><text x="13" dy=".3em" dx="-.3em" text-anchor="start" font-size="14px" style="fill-opacity: 0.999979; font-family: sans-serif; font-weight: normal; fill: black;">4_tr_Q5RZZ3_Q5RZZ3_PRUPE_Non-specific_lipid-transfer_protein_OS=Prunus_persica_OX=3760_GN=LTP_PE=2_SV=1</text><text class="triangleText" dy=".35em" font-size="14px" style="fill-opacity: 1e-06; font-family: sans-serif;"></text><path d="M0,0L0,0L0,0L0,0"></path></g><g class="node" transform="translate(19.9995833837037,253.41972400244978)" id="node_6633" style="cursor: crosshair;"><circle class="node" r="4" style="fill: black;"></circle><rect class="node" y="-4px" x="-4px" width="0px" height="0px" style="stroke-width: 2px; stroke: black;"></rect><text x="-13" dy="-.3em" dx=".3em" text-anchor="end" font-size="14px" style="fill-opacity: 0.999979; font-family: sans-serif; font-weight: normal;"></text><text class="triangleText" dy=".35em" font-size="14px" style="fill-opacity: 1e-06; font-family: sans-serif;" x="0"></text><path d="M0,0L0,0L0,0L0,0"></path></g></g></svg>